<svg width="230" height="49" viewBox="0 0 230 49" fill="none" xmlns="http://www.w3.org/2000/svg">
<path d="M25.8281 0.640625L27.9375 1.10938C27.9062 3.42188 27.8906 6.5 27.8906 10.3438C27.8906 15.5938 27.9375 20.5156 28.0312 25.1094C28.1562 29.7031 28.2188 32.3594 28.2188 33.0781V35C24.9375 35.3438 18.5469 35.5156 9.04688 35.5156C5.20312 35.5156 2.82812 35.4688 1.92188 35.375C2.01562 32 2.17188 26.25 2.39062 18.125C2.60938 10 2.76562 4.25 2.85938 0.875L4.96875 1.34375C5.0625 4.625 5.1875 9.84375 5.34375 17C5.53125 24.125 5.67188 29.25 5.76562 32.375L13.1719 32.0469C13.2969 28.6094 13.5 23.3125 13.7812 16.1562C14.0625 9 14.25 3.9375 14.3438 0.96875L16.4531 1.4375C16.5469 4.6875 16.6719 9.79688 16.8281 16.7656C17.0156 23.7344 17.1562 28.75 17.25 31.8125C18.125 31.75 20.5781 31.6406 24.6094 31.4844C24.7344 28.1094 24.9375 22.8906 25.2188 15.8281C25.5312 8.73437 25.7344 3.67187 25.8281 0.640625ZM33.0938 10.9531C37.9375 9.92188 40.8906 9.40625 41.9531 9.40625C46.1406 9.40625 48.2344 11.2031 48.2344 14.7969C48.2344 16.0469 48.0156 17.2656 47.5781 18.4531C47.1719 19.6094 46.6562 20.375 46.0312 20.75C48.4688 22.4062 49.6875 24.6875 49.6875 27.5938C49.6875 30.3438 48.7812 32.4844 46.9688 34.0156C45.1875 35.5469 42.8281 36.3125 39.8906 36.3125C36.3906 36.3125 33.7812 35.375 32.0625 33.5L33.0938 10.9531ZM35.7656 22.7188L36.1875 32.2344C36.9688 32.6094 37.8594 32.7969 38.8594 32.7969C40.7969 32.7969 42.5781 32.1875 44.2031 30.9688C45.8281 29.75 46.6406 28.3281 46.6406 26.7031C46.6406 25.5781 46.2031 24.5469 45.3281 23.6094C44.4531 22.6406 43.3438 22.1562 42 22.1562C41.2188 22.1562 39.1406 22.3438 35.7656 22.7188ZM35.2969 13.0625L35.625 20.2812C36.0938 20.2188 36.8125 20.1719 37.7812 20.1406C38.75 20.1094 39.5312 20.0469 40.125 19.9531C40.7188 19.8281 41.375 19.5938 42.0938 19.25C42.8125 18.875 43.375 18.2344 43.7812 17.3281C44.2188 16.4219 44.5156 15.2344 44.6719 13.7656C44.3594 12.8281 43.4062 12.3594 41.8125 12.3594C41.0938 12.3594 39.9688 12.4688 38.4375 12.6875C36.9062 12.9062 35.8594 13.0312 35.2969 13.0625ZM70.6875 30.4531L71.1562 32.5156C69.7812 33.0156 67.7344 33.5781 65.0156 34.2031C62.3281 34.7969 60.3281 35.0938 59.0156 35.0938C57.6719 35.0938 56.5 34.6562 55.5 33.7812C54.5 32.875 53.75 31.7344 53.25 30.3594C52.75 28.9531 52.375 27.5781 52.125 26.2344C51.9062 24.8594 51.7969 23.5156 51.7969 22.2031C51.7969 14.3906 55.3281 10.4844 62.3906 10.4844C64.0781 10.4844 65.5625 11.0312 66.8438 12.125C68.125 13.1875 68.7656 14.5781 68.7656 16.2969C68.7656 17.2344 68.5 18.0625 67.9688 18.7812C67.4688 19.5 66.8438 20.0781 66.0938 20.5156C65.375 20.9219 64.4375 21.2969 63.2812 21.6406C62.1562 21.9844 61.1562 22.2344 60.2812 22.3906C59.4062 22.5469 58.3594 22.7188 57.1406 22.9062C55.9219 23.0938 55.0781 23.2344 54.6094 23.3281C54.6406 24.2344 54.6875 25.0312 54.75 25.7188C54.8438 26.4062 55 27.1562 55.2188 27.9688C55.4688 28.75 55.7812 29.4062 56.1562 29.9375C56.5625 30.4375 57.1094 30.8594 57.7969 31.2031C58.4844 31.5469 59.2969 31.7188 60.2344 31.7188C61.3594 31.7188 62.7344 31.625 64.3594 31.4375C65.9844 31.2188 67.4219 31 68.6719 30.7812C69.9531 30.5625 70.625 30.4531 70.6875 30.4531ZM54.7969 20.4219C59.0469 19.2031 62.5312 17.9219 65.25 16.5781C65.0312 15.5469 64.7344 14.7969 64.3594 14.3281C63.9844 13.8594 63.4219 13.625 62.6719 13.625C60.7656 13.625 59.0312 14.2812 57.4688 15.5938C55.9375 16.9062 55.0469 18.5156 54.7969 20.4219ZM77.2969 5.84375L76.9688 4.39062C77.7188 4.48438 78.4531 4.53125 79.1719 4.53125C81.3281 4.53125 83.3125 3.9375 85.125 2.75C85.8438 2.8125 86.4531 3.03125 86.9531 3.40625C87.4531 3.78125 87.7031 4.21875 87.7031 4.71875C87.7031 5.125 87.5625 5.45312 87.2812 5.70312C87 5.95313 86.5781 6.14063 86.0156 6.26562C85.4531 6.35938 84.9844 6.42188 84.6094 6.45312C84.2344 6.45312 83.7344 6.45312 83.1094 6.45312C81.0781 6.45312 79.1406 6.25 77.2969 5.84375ZM77.1562 31.1094C77.1562 31.6406 77.1875 32.3438 77.25 33.2188C76.9688 34.1875 76.4219 34.6719 75.6094 34.6719C75.0469 34.6719 74.5 34.4531 73.9688 34.0156C73.4688 33.5469 73.1562 32.9844 73.0312 32.3281C73.125 29.7969 73.2344 26.0938 73.3594 21.2188C73.5156 16.3438 73.625 13.0469 73.6875 11.3281L75.8438 10.9531C76.2188 12.9531 76.4531 15.6094 76.5469 18.9219C76.6406 22.2344 76.7656 24.7031 76.9219 26.3281C77.5156 25.4531 79.2031 23.1719 81.9844 19.4844C84.7656 15.7969 86.6562 13.0469 87.6562 11.2344C88.3438 11.1094 88.7812 11.0469 88.9688 11.0469C89.5625 11.0469 89.9688 11.3125 90.1875 11.8438C90.4375 12.375 90.5938 13.375 90.6562 14.8438L91.5469 34.1562C91.2656 35.0938 90.7188 35.5625 89.9062 35.5625C89.3438 35.5625 88.7969 35.3438 88.2656 34.9062C87.7656 34.4375 87.4531 33.875 87.3281 33.2188C87.3594 32.1875 87.4375 29.6719 87.5625 25.6719C87.7188 21.6406 87.8438 18.7812 87.9375 17.0938C82.5938 23.1875 79 27.8594 77.1562 31.1094ZM109.406 11.2344L111.516 11.7031L112.594 34.4375C112.312 35.375 111.766 35.8438 110.953 35.8438C110.391 35.8438 109.844 35.6094 109.312 35.1406C108.781 34.7031 108.453 34.1562 108.328 33.5C108.328 33.4062 108.469 30.7656 108.75 25.5781V25.2031C107.875 25.1406 106.578 25.1094 104.859 25.1094C102.266 25.1094 100.312 25.0312 99 24.875C99.1562 26.6875 99.3594 29.6094 99.6094 33.6406C99.3281 34.6094 98.7812 35.0938 97.9688 35.0938C97.4062 35.0938 96.8594 34.875 96.3281 34.4375C95.8281 33.9688 95.5156 33.4062 95.3906 32.75C95.4844 31.1875 95.5312 29.625 95.5312 28.0625C95.5312 27.0625 95.5156 25.5625 95.4844 23.5625C95.4531 21.5625 95.4375 20.0781 95.4375 19.1094C95.4375 16.1094 95.5312 13.5938 95.7188 11.5625L97.8281 12.0781C98.4531 18.8594 98.7812 22.3438 98.8125 22.5312C104.156 22.8125 106.906 22.9531 107.062 22.9531C108.344 22.9531 108.984 22.875 108.984 22.7188C108.984 22.0938 109.047 20.1094 109.172 16.7656C109.297 13.4219 109.375 11.5781 109.406 11.2344ZM118.078 14.75L117.141 12.3594C117.953 11.5469 118.984 10.9062 120.234 10.4375C121.484 9.9375 122.719 9.6875 123.938 9.6875C129.219 9.6875 131.859 14.25 131.859 23.375C131.859 24.625 131.781 26.4688 131.625 28.9062C131.5 31.3438 131.438 33.1719 131.438 34.3906C131.188 35.3594 130.703 35.8438 129.984 35.8438C129.422 35.8438 128.906 35.5625 128.438 35C127.969 34.4375 127.734 33.8125 127.734 33.125C127.734 32.9062 127.75 32.75 127.781 32.6562C125.844 34.5312 123.781 35.4688 121.594 35.4688C119.938 35.4688 118.484 34.875 117.234 33.6875C116.016 32.4688 115.406 31 115.406 29.2812C115.406 26.375 116.531 23.75 118.781 21.4062C121.062 19.0625 123.641 17.8906 126.516 17.8906C126.641 17.8906 126.766 17.9062 126.891 17.9375C127.016 17.9375 127.156 17.9531 127.312 17.9844C127.5 18.0156 127.641 18.0312 127.734 18.0312C127.484 14.375 126.031 12.5469 123.375 12.5469C121.812 12.5469 120.047 13.2812 118.078 14.75ZM127.875 29.4219C127.938 27.2344 127.969 25.5781 127.969 24.4531C127.969 23.5156 127.938 22.2031 127.875 20.5156H127.5C125.281 20.5469 123.25 21.375 121.406 23C119.594 24.625 118.688 26.5938 118.688 28.9062C118.688 29.9062 118.984 30.7031 119.578 31.2969C120.203 31.8906 120.953 32.1875 121.828 32.1875C123.203 32.1875 125.219 31.2656 127.875 29.4219ZM149.625 10.3438L152.25 10.8125C152.25 11.4688 152.266 11.9531 152.297 12.2656C154.016 11.1719 155.75 10.625 157.5 10.625C160.344 10.625 162.562 11.8438 164.156 14.2812C165.75 16.7188 166.547 19.4844 166.547 22.5781C166.547 24.1406 166.422 25.6406 166.172 27.0781C165.953 28.4844 165.547 29.9375 164.953 31.4375C164.359 32.9062 163.438 34.0938 162.188 35C160.969 35.875 159.484 36.3125 157.734 36.3125C156.078 36.3125 154.484 35.875 152.953 35C153.078 40.4688 153.188 44.5312 153.281 47.1875C153 48.1562 152.453 48.6406 151.641 48.6406C151.078 48.6406 150.531 48.4062 150 47.9375C149.5 47.5 149.188 46.9531 149.062 46.2969L149.625 10.3438ZM152.672 15.3125L152.812 30.4531C153.188 31.2031 153.766 31.8125 154.547 32.2812C155.328 32.7188 156.188 32.9375 157.125 32.9375C158.344 32.9375 159.375 32.5469 160.219 31.7656C161.094 30.9844 161.703 29.9531 162.047 28.6719C162.422 27.3594 162.672 26.1406 162.797 25.0156C162.953 23.8906 163.031 22.7031 163.031 21.4531C163.031 16.1406 161.234 13.4844 157.641 13.4844C156.484 13.4844 155.406 13.6562 154.406 14C153.438 14.3125 152.859 14.75 152.672 15.3125ZM170.344 25.0156C170.344 23.7656 170.469 22.375 170.719 20.8438C171 19.3125 171.406 17.7031 171.938 16.0156C172.469 14.3281 173.266 12.9219 174.328 11.7969C175.391 10.6719 176.625 10.1094 178.031 10.1094C181.031 10.1094 183.438 11.4688 185.25 14.1875C187.062 16.875 187.969 19.875 187.969 23.1875C187.969 24.5938 187.812 26 187.5 27.4062C187.219 28.7812 186.766 30.1406 186.141 31.4844C185.516 32.8281 184.609 33.9531 183.422 34.8594C182.266 35.7344 180.906 36.2344 179.344 36.3594C176.469 35.9844 174.25 34.7656 172.688 32.7031C171.125 30.6094 170.344 28.0469 170.344 25.0156ZM178.312 12.5469C177.219 12.6719 176.297 13.6719 175.547 15.5469C174.797 17.4219 174.312 19.25 174.094 21.0312C173.875 22.7812 173.766 24.3281 173.766 25.6719C173.766 27.4219 174.297 29.0469 175.359 30.5469C176.453 32.0156 177.672 32.75 179.016 32.75C179.984 32.75 180.859 32.375 181.641 31.625C182.422 30.875 183.031 29.9531 183.469 28.8594C183.938 27.7344 184.281 26.6094 184.5 25.4844C184.75 24.3594 184.875 23.3594 184.875 22.4844C184.875 19.9219 184.297 17.6875 183.141 15.7812C181.984 13.875 180.375 12.7969 178.312 12.5469ZM187.828 13.4844L187.406 11.4219C191.594 11.1719 198.188 10.8281 207.188 10.3906C207.938 10.4219 208.578 10.7031 209.109 11.2344C209.641 11.7656 209.906 12.3281 209.906 12.9219C209.906 13.8594 209.281 14.3906 208.031 14.5156L199.266 14.0938C199.422 16.4375 199.5 19.8594 199.5 24.3594C199.531 28.8281 199.594 32.0938 199.688 34.1562C199.406 35.0625 198.859 35.5156 198.047 35.5156C197.516 35.5156 197 35.2969 196.5 34.8594C196 34.4219 195.688 33.8906 195.562 33.2656C196 25.5781 196.453 19.125 196.922 13.9062L187.828 13.4844ZM213.516 14.75L212.578 12.3594C213.391 11.5469 214.422 10.9062 215.672 10.4375C216.922 9.9375 218.156 9.6875 219.375 9.6875C224.656 9.6875 227.297 14.25 227.297 23.375C227.297 24.625 227.219 26.4688 227.062 28.9062C226.938 31.3438 226.875 33.1719 226.875 34.3906C226.625 35.3594 226.141 35.8438 225.422 35.8438C224.859 35.8438 224.344 35.5625 223.875 35C223.406 34.4375 223.172 33.8125 223.172 33.125C223.172 32.9062 223.188 32.75 223.219 32.6562C221.281 34.5312 219.219 35.4688 217.031 35.4688C215.375 35.4688 213.922 34.875 212.672 33.6875C211.453 32.4688 210.844 31 210.844 29.2812C210.844 26.375 211.969 23.75 214.219 21.4062C216.5 19.0625 219.078 17.8906 221.953 17.8906C222.078 17.8906 222.203 17.9062 222.328 17.9375C222.453 17.9375 222.594 17.9531 222.75 17.9844C222.938 18.0156 223.078 18.0312 223.172 18.0312C222.922 14.375 221.469 12.5469 218.812 12.5469C217.25 12.5469 215.484 13.2812 213.516 14.75ZM223.312 29.4219C223.375 27.2344 223.406 25.5781 223.406 24.4531C223.406 23.5156 223.375 22.2031 223.312 20.5156H222.938C220.719 20.5469 218.688 21.375 216.844 23C215.031 24.625 214.125 26.5938 214.125 28.9062C214.125 29.9062 214.422 30.7031 215.016 31.2969C215.641 31.8906 216.391 32.1875 217.266 32.1875C218.641 32.1875 220.656 31.2656 223.312 29.4219Z" fill="white"/>
</svg>
